{
  "accessors": [
    {
      "bufferView": 1,
      "componentType": 5126,
      "count": 65532,
      "max": [
        0.58374053239822388,
        0.95224261283874512,
        1.1679791212081909
      ],
      "min": [
        -0.59941864013671875,
        -0.39522838592529297,
        -1.0330995321273804
      ],
      "type": "VEC3"
    },
    {
      "bufferView": 1,
      "byteOffset": 786384,
      "componentType": 5126,
      "count": 65532,
      "max": [
        0.9999958872795105,
        0.99998617172241211,
        0.99999338388442993
      ],
      "min": [
        -0.9999815821647644,
        -0.99999940395355225,
        -0.99998050928115845
      ],
      "type": "VEC3"
    },
    {
      "bufferView": 0,
      "componentType": 5125,
      "count": 281631,
      "max": [
        65531
      ],
      "min": [
        0
      ],
      "type": "SCALAR"
    },
    {
      "bufferView": 1,
      "byteOffset": 1572768,
      "componentType": 5126,
      "count": 65532,
      "max": [
        0.59912669658660889,
        0.98285651206970215,
        1.16265869140625
      ],
      "min": [
        -0.59942954778671265,
        -0.40492358803749084,
        -1.0299081802368164
      ],
      "type": "VEC3"
    },
    {
      "bufferView": 1,
      "byteOffset": 2359152,
      "componentType": 5126,
      "count": 65532,
      "max": [
        0.99998593330383301,
        0.99999666213989258,
        0.99998760223388672
      ],
      "min": [
        -0.99999934434890747,
        -0.99993091821670532,
        -0.99995046854019165
      ],
      "type": "VEC3"
    },
    {
      "bufferView": 0,
      "byteOffset": 1126524,
      "componentType": 5125,
      "count": 297990,
      "max": [
        65531
      ],
      "min": [
        0
      ],
      "type": "SCALAR"
    },
    {
      "bufferView": 1,
      "byteOffset": 3145536,
      "componentType": 5126,
      "count": 65532,
      "max": [
        0.59863650798797607,
        1.0363975763320923,
        1.1678512096405029
      ],
      "min": [
        -0.58462077379226685,
        -0.36794951558113098,
        -1.0285176038742065
      ],
      "type": "VEC3"
    },
    {
      "bufferView": 1,
      "byteOffset": 3931920,
      "componentType": 5126,
      "count": 65532,
      "max": [
        0.9999854564666748,
        0.99996143579483032,
        0.99998635053634644
      ],
      "min": [
        -0.999969482421875,
        -0.99999171495437622,
        -0.99990981817245483
      ],
      "type": "VEC3"
    },
    {
      "bufferView": 0,
      "byteOffset": 2318484,
      "componentType": 5125,
      "count": 303696,
      "max": [
        65531
      ],
      "min": [
        0
      ],
      "type": "SCALAR"
    },
    {
      "bufferView": 1,
      "byteOffset": 4718304,
      "componentType": 5126,
      "count": 65532,
      "max": [
        0.58966565132141113,
        1.0349966287612915,
        1.1671791076660156
      ],
      "min": [
        -0.59830015897750854,
        -0.39168956875801086,
        -1.0239635705947876
      ],
      "type": "VEC3"
    },
    {
      "bufferView": 1,
      "byteOffset": 5504688,
      "componentType": 5126,
      "count": 65532,
      "max": [
        0.99999117851257324,
        0.9999995231628418,
        0.99987208843231201
      ],
      "min": [
        -0.99999773502349854,
        -0.99999940395355225,
        -0.99999105930328369
      ],
      "type": "VEC3"
    },
    {
      "bufferView": 0,
      "byteOffset": 3533268,
      "componentType": 5125,
      "count": 304029,
      "max": [
        65531
      ],
      "min": [
        0
      ],
      "type": "SCALAR"
    },
    {
      "bufferView": 1,
      "byteOffset": 6291072,
      "componentType": 5126,
      "count": 65532,
      "max": [
        0.59912669658660889,
        1.0333480834960938,
        1.1682827472686768
      ],
      "min": [
        -0.59698575735092163,
        -0.40558186173439026,
        -1.0091127157211304
      ],
      "type": "VEC3"
    },
    {
      "bufferView": 1,
      "byteOffset": 7077456,
      "componentType": 5126,
      "count": 65532,
      "max": [
        0.99999552965164185,
        0.99999731779098511,
        0.99998760223388672
      ],
      "min": [
        -0.99999278783798218,
        -0.99999171495437622,
        -0.99994868040084839
      ],
      "type": "VEC3"
    },
    {
      "bufferView": 0,
      "byteOffset": 4749384,
      "componentType": 5125,
      "count": 298506,
      "max": [
        65531
      ],
      "min": [
        0
      ],
      "type": "SCALAR"
    },
    {
      "bufferView": 1,
      "byteOffset": 7863840,
      "componentType": 5126,
      "count": 65532,
      "max": [
        0.59760946035385132,
        1.0320240259170532,
        1.1679791212081909
      ],
      "min": [
        -0.59871304035186768,
        -0.40249887108802795,
        -1.031144380569458
      ],
      "type": "VEC3"
    },
    {
      "bufferView": 1,
      "byteOffset": 8650224,
      "componentType": 5126,
      "count": 65532,
      "max": [
        0.99999696016311646,
        0.99999731779098511,
        0.99998420476913452
      ],
      "min": [
        -0.99999934434890747,
        -0.99874204397201538,
        -0.9999614953994751
      ],
      "type": "VEC3"
    },
    {
      "bufferView": 0,
      "byteOffset": 5943408,
      "componentType": 5125,
      "count": 244590,
      "max": [
        65531
      ],
      "min": [
        0
      ],
      "type": "SCALAR"
    },
    {
      "bufferView": 1,
      "byteOffset": 9436608,
      "componentType": 5126,
      "count": 23114,
      "max": [
        0.59884810447692871,
        1.0357300043106079,
        1.1676082611083984
      ],
      "min": [
        -0.59797769784927368,
        -0.40460258722305298,
        -1.0315579175949097
      ],
      "type": "VEC3"
    },
    {
      "bufferView": 1,
      "byteOffset": 9713976,
      "componentType": 5126,
      "count": 23114,
      "max": [
        0.99997758865356445,
        0.99997878074645996,
        0.99997025728225708
      ],
      "min": [
        -0.99997240304946899,
        -0.99909001588821411,
        -0.99990981817245483
      ],
      "type": "VEC3"
    },
    {
      "bufferView": 0,
      "byteOffset": 6921768,
      "componentType": 5125,
      "count": 35562,
      "max": [
        23113
      ],
      "min": [
        0
      ],
      "type": "SCALAR"
    }
  ],
  "asset": {
    "extras": {
      "author": "imp (https://sketchfab.com/imp)",
      "license": "CC-BY-4.0 (http://creativecommons.org/licenses/by/4.0/)",
      "source": "https://sketchfab.com/3d-models/the-head-of-the-sculpture-use-zbrush-43e2ab6f5c574120a2a1aba39eb2b62d",
      "title": "The head of the sculpture use Zbrush"
    },
    "generator": "Sketchfab-6.34.0",
    "version": "2.0"
  },
  "bufferViews": [
    {
      "buffer": 0,
      "byteLength": 7064016,
      "byteOffset": 0,
      "name": "floatBufferViews",
      "target": 34963
    },
    {
      "buffer": 0,
      "byteLength": 9991344,
      "byteOffset": 7064016,
      "byteStride": 12,
      "name": "floatBufferViews",
      "target": 34962
    }
  ],
  "buffers": [
    {
      "byteLength": 17055360,
      "uri": "scene.bin"
    }
  ],
  "materials": [
    {
      "doubleSided": true,
      "emissiveFactor": [
        0,
        0,
        0
      ],
      "name": "material_0",
      "pbrMetallicRoughness": {
        "baseColorFactor": [
          0.12,
          0.12,
          0.12,
          1
        ],
        "metallicFactor": 0.040000000000000001,
        "roughnessFactor": 0.55000000000000004
      }
    }
  ],
  "meshes": [
    {
      "primitives": [
        {
          "attributes": {
            "NORMAL": 1,
            "POSITION": 0
          },
          "indices": 2,
          "material": 0,
          "mode": 4
        }
      ]
    },
    {
      "primitives": [
        {
          "attributes": {
            "NORMAL": 4,
            "POSITION": 3
          },
          "indices": 5,
          "material": 0,
          "mode": 4
        }
      ]
    },
    {
      "primitives": [
        {
          "attributes": {
            "NORMAL": 7,
            "POSITION": 6
          },
          "indices": 8,
          "material": 0,
          "mode": 4
        }
      ]
    },
    {
      "primitives": [
        {
          "attributes": {
            "NORMAL": 10,
            "POSITION": 9
          },
          "indices": 11,
          "material": 0,
          "mode": 4
        }
      ]
    },
    {
      "primitives": [
        {
          "attributes": {
            "NORMAL": 13,
            "POSITION": 12
          },
          "indices": 14,
          "material": 0,
          "mode": 4
        }
      ]
    },
    {
      "primitives": [
        {
          "attributes": {
            "NORMAL": 16,
            "POSITION": 15
          },
          "indices": 17,
          "material": 0,
          "mode": 4
        }
      ]
    },
    {
      "primitives": [
        {
          "attributes": {
            "NORMAL": 19,
            "POSITION": 18
          },
          "indices": 20,
          "material": 0,
          "mode": 4
        }
      ]
    }
  ],
  "nodes": [
    {
      "children": [
        1
      ],
      "name": "RootNode (gltf orientation matrix)",
      "rotation": [
        -0.70710678118654746,
        -0,
        -0,
        0.70710678118654757
      ]
    },
    {
      "children": [
        2
      ],
      "name": "RootNode (model correction matrix)"
    },
    {
      "children": [
        3,
        4,
        5,
        6,
        7,
        8,
        9
      ],
      "name": "basicfacerenew7.OBJ.cleaner.gles"
    },
    {
      "mesh": 0,
      "name": ""
    },
    {
      "mesh": 1,
      "name": ""
    },
    {
      "mesh": 2,
      "name": ""
    },
    {
      "mesh": 3,
      "name": ""
    },
    {
      "mesh": 4,
      "name": ""
    },
    {
      "mesh": 5,
      "name": ""
    },
    {
      "mesh": 6,
      "name": ""
    }
  ],
  "scene": 0,
  "scenes": [
    {
      "name": "OSG_Scene",
      "nodes": [
        0
      ]
    }
  ]
}

